<mxfile host="app.diagrams.net" agent="Mozilla/5.0 (Windows NT 10.0; Win64; x64) AppleWebKit/537.36 (KHTML, like Gecko) Chrome/132.0.0.0 Safari/537.36" version="26.0.11">
  <diagram name="Page-1" id="5ytPIp0PzC29Wt67Kdhx">
    <mxGraphModel dx="1195" dy="648" grid="1" gridSize="10" guides="1" tooltips="1" connect="1" arrows="1" fold="1" page="1" pageScale="1" pageWidth="827" pageHeight="1169" math="0" shadow="0">
      <root>
        <mxCell id="0" />
        <mxCell id="1" parent="0" />
        <mxCell id="z6UEajspVN6upp0j0yth-12" style="edgeStyle=orthogonalEdgeStyle;rounded=0;orthogonalLoop=1;jettySize=auto;html=1;" edge="1" parent="1" source="z6UEajspVN6upp0j0yth-1" target="z6UEajspVN6upp0j0yth-10">
          <mxGeometry relative="1" as="geometry" />
        </mxCell>
        <mxCell id="z6UEajspVN6upp0j0yth-19" style="edgeStyle=orthogonalEdgeStyle;rounded=0;orthogonalLoop=1;jettySize=auto;html=1;entryX=0.5;entryY=0;entryDx=0;entryDy=0;fillColor=#a20025;strokeColor=light-dark(#6F0000,#FF143B);" edge="1" parent="1" source="z6UEajspVN6upp0j0yth-1" target="z6UEajspVN6upp0j0yth-2">
          <mxGeometry relative="1" as="geometry" />
        </mxCell>
        <mxCell id="z6UEajspVN6upp0j0yth-1" value="data" style="ellipse;whiteSpace=wrap;html=1;aspect=fixed;" vertex="1" parent="1">
          <mxGeometry x="310" y="60" width="120" height="120" as="geometry" />
        </mxCell>
        <mxCell id="z6UEajspVN6upp0j0yth-2" value="Form" style="whiteSpace=wrap;html=1;aspect=fixed;" vertex="1" parent="1">
          <mxGeometry x="300" y="390" width="110" height="110" as="geometry" />
        </mxCell>
        <mxCell id="z6UEajspVN6upp0j0yth-3" value="PDF" style="whiteSpace=wrap;html=1;aspect=fixed;" vertex="1" parent="1">
          <mxGeometry x="470" y="390" width="110" height="110" as="geometry" />
        </mxCell>
        <mxCell id="z6UEajspVN6upp0j0yth-5" value="fileUpload" style="rounded=1;whiteSpace=wrap;html=1;arcSize=0;" vertex="1" parent="1">
          <mxGeometry x="10" y="65" width="110" height="110" as="geometry" />
        </mxCell>
        <mxCell id="z6UEajspVN6upp0j0yth-14" style="edgeStyle=orthogonalEdgeStyle;rounded=0;orthogonalLoop=1;jettySize=auto;html=1;" edge="1" parent="1" source="z6UEajspVN6upp0j0yth-10" target="z6UEajspVN6upp0j0yth-11">
          <mxGeometry relative="1" as="geometry" />
        </mxCell>
        <mxCell id="z6UEajspVN6upp0j0yth-10" value="PDF_GENERATOR" style="whiteSpace=wrap;html=1;aspect=fixed;" vertex="1" parent="1">
          <mxGeometry x="617.5" y="62.5" width="115" height="115" as="geometry" />
        </mxCell>
        <mxCell id="z6UEajspVN6upp0j0yth-15" style="edgeStyle=orthogonalEdgeStyle;rounded=0;orthogonalLoop=1;jettySize=auto;html=1;entryX=0.5;entryY=0;entryDx=0;entryDy=0;" edge="1" parent="1" source="z6UEajspVN6upp0j0yth-11" target="z6UEajspVN6upp0j0yth-3">
          <mxGeometry relative="1" as="geometry" />
        </mxCell>
        <mxCell id="z6UEajspVN6upp0j0yth-11" value="PDF_RENDERED" style="rounded=1;whiteSpace=wrap;html=1;" vertex="1" parent="1">
          <mxGeometry x="615" y="280" width="120" height="40" as="geometry" />
        </mxCell>
        <mxCell id="z6UEajspVN6upp0j0yth-18" style="edgeStyle=orthogonalEdgeStyle;rounded=0;orthogonalLoop=1;jettySize=auto;html=1;entryX=0.007;entryY=0.454;entryDx=0;entryDy=0;entryPerimeter=0;" edge="1" parent="1" source="z6UEajspVN6upp0j0yth-2" target="z6UEajspVN6upp0j0yth-1">
          <mxGeometry relative="1" as="geometry">
            <Array as="points">
              <mxPoint x="240" y="445" />
              <mxPoint x="240" y="115" />
            </Array>
          </mxGeometry>
        </mxCell>
        <mxCell id="z6UEajspVN6upp0j0yth-20" style="edgeStyle=orthogonalEdgeStyle;rounded=0;orthogonalLoop=1;jettySize=auto;html=1;entryX=0.455;entryY=1.003;entryDx=0;entryDy=0;entryPerimeter=0;" edge="1" parent="1" source="z6UEajspVN6upp0j0yth-5" target="z6UEajspVN6upp0j0yth-2">
          <mxGeometry relative="1" as="geometry" />
        </mxCell>
      </root>
    </mxGraphModel>
  </diagram>
</mxfile>
